<svg version="1.1" id="Line_6" xmlns="http://www.w3.org/2000/svg" x="0" y="0" viewBox="0 0 32 32" xml:space="preserve"><style>.st0{fill:#fff}</style><path class="st0" d="M26 24H14.9c-.4-1.7-2-3-3.9-3s-3.4 1.3-3.9 3H6c-.6 0-1 .4-1 1s.4 1 1 1h1.1c.4 1.7 2 3 3.9 3s3.4-1.3 3.9-3H26c.6 0 1-.4 1-1s-.4-1-1-1zm-15 3.4c-1.3 0-2.4-1.1-2.4-2.4 0-1.3 1.1-2.4 2.4-2.4 1.3 0 2.4 1.1 2.4 2.4 0 1.3-1.1 2.4-2.4 2.4zM26 8H14.9c-.4-1.7-2-3-3.9-3S7.6 6.3 7.1 8H6c-.6 0-1 .4-1 1s.4 1 1 1h1.1c.4 1.7 2 3 3.9 3s3.4-1.3 3.9-3H26c.6 0 1-.4 1-1s-.4-1-1-1zm-15 3.4c-1.3 0-2.4-1.1-2.4-2.4 0-1.3 1.1-2.4 2.4-2.4 1.3 0 2.4 1.1 2.4 2.4 0 1.3-1.1 2.4-2.4 2.4zM26 16h-2.1c-.4-1.7-2-3-3.9-3s-3.4 1.3-3.9 3H6c-.6 0-1 .4-1 1s.4 1 1 1h10.1c.4 1.7 2 3 3.9 3s3.4-1.3 3.9-3H26c.6 0 1-.4 1-1s-.4-1-1-1zm-6 3.4c-1.3 0-2.4-1.1-2.4-2.4 0-1.3 1.1-2.4 2.4-2.4 1.3 0 2.4 1.1 2.4 2.4 0 1.3-1.1 2.4-2.4 2.4zM28 0H4C1.8 0 0 1.8 0 4v24c0 2.2 1.8 4 4 4h24c2.2 0 4-1.8 4-4V4c0-2.2-1.8-4-4-4zm2 28c0 1.1-.9 2-2 2H4c-1.1 0-2-.9-2-2V4c0-1.1.9-2 2-2h24c1.1 0 2 .9 2 2v24z" id="_x32__16_"/></svg>