<svg version="1.1" id="Line_2" xmlns="http://www.w3.org/2000/svg" x="0" y="0" viewBox="0 0 32 32" xml:space="preserve"><style>.st0{fill:#fff}</style><path class="st0" d="M25 18c1.7 0 3-1.3 3-3s-1.3-3-3-3-3 1.3-3 3 1.3 3 3 3zm-1-4h2v2h-2v-2zm1 12c1.7 0 3-1.3 3-3s-1.3-3-3-3-3 1.3-3 3 1.3 3 3 3zm-1-4h2v2h-2v-2zm-7 4c1.7 0 3-1.3 3-3s-1.3-3-3-3-3 1.3-3 3 1.3 3 3 3zm-1-4h2v2h-2v-2zM28 0H6C3.8 0 2 1.8 2 4v24c0 2.2 1.8 4 4 4h22c2.2 0 4-1.8 4-4V4c0-2.2-1.8-4-4-4zm2 28c0 1.1-.9 2-2 2H6c-1.1 0-2-.9-2-2V8h26v20zm0-22H4V4c0-1.1.9-2 2-2h22c1.1 0 2 .9 2 2v2zM17 18c1.7 0 3-1.3 3-3s-1.3-3-3-3-3 1.3-3 3 1.3 3 3 3zm-1-4h2v2h-2v-2zM9 26c1.7 0 3-1.3 3-3s-1.3-3-3-3-3 1.3-3 3 1.3 3 3 3zm-1-4h2v2H8v-2zm1-4c1.7 0 3-1.3 3-3s-1.3-3-3-3-3 1.3-3 3 1.3 3 3 3zm-1-4h2v2H8v-2z" id="_x31_0_20_"/></svg>