<svg version="1.1" id="Line_5" xmlns="http://www.w3.org/2000/svg" x="0" y="0" viewBox="0 0 32 32" xml:space="preserve"><style>.st0{fill:#fff}</style><path class="st0" d="M18 16.4c1.3-1.7 2-3.9 2-6.4 0-5.5-4-10-9-10S2 4.5 2 10c0 2.4.8 4.6 2 6.4-2.3.8-4 3-4 5.6v4c0 3.3 2.7 6 6 6h10c3.3 0 6-2.7 6-6v-4c0-2.6-1.7-4.8-4-5.6zM4 10c0-4.4 3.1-8 7-8s7 3.6 7 8-3.1 8-7 8-7-3.6-7-8zm16 15.5c0 2.5-2.2 4.5-4.9 4.5H6.9C4.2 30 2 28 2 25.5v-3c0-2.1 1.6-3.9 3.8-4.4C7.2 19.3 9 20 11 20s3.8-.7 5.2-1.9c2.2.5 3.8 2.2 3.8 4.4v3zM23 8h8c.6 0 1-.4 1-1s-.4-1-1-1h-8c-.6 0-1 .4-1 1s.4 1 1 1zm8 16h-6c-.6 0-1 .4-1 1s.4 1 1 1h6c.6 0 1-.4 1-1s-.4-1-1-1zm0-12h-8c-.6 0-1 .4-1 1s.4 1 1 1h8c.6 0 1-.4 1-1s-.4-1-1-1zm0 6h-6c-.6 0-1 .4-1 1s.4 1 1 1h6c.6 0 1-.4 1-1s-.4-1-1-1z" id="_x37__17_"/></svg>