<svg version="1.1" id="Line_12" xmlns="http://www.w3.org/2000/svg" x="0" y="0" viewBox="0 0 32 32" xml:space="preserve"><style>.st0{fill:#fff}</style><path class="st0" d="M14 0h-2c-1.1 0-2 .9-2 2v28c0 1.1.9 2 2 2h2c1.1 0 2-.9 2-2V2c0-1.1-.9-2-2-2zm0 29c0 .6-.4 1-1 1s-1-.4-1-1V3c0-.6.4-1 1-1s1 .4 1 1v26zM4 9H2c-1.1 0-2 .9-2 2v19c0 1.1.9 2 2 2h2c1.1 0 2-.9 2-2V11c0-1.1-.9-2-2-2zm0 20c0 .6-.4 1-1 1s-1-.4-1-1V12c0-.6.4-1 1-1s1 .4 1 1v17zm20-13h-2c-1.1 0-2 .9-2 2v12c0 1.1.9 2 2 2h2c1.1 0 2-.9 2-2V18c0-1.1-.9-2-2-2zm0 13c0 .6-.4 1-1 1s-1-.4-1-1V19c0-.6.4-1 1-1s1 .4 1 1v10z" id="_x35__10_"/></svg>