<svg version="1.1" id="Layer_1" xmlns="http://www.w3.org/2000/svg" x="0" y="0" viewBox="0 0 32 40" xml:space="preserve"><symbol id="bell" viewBox="0 0 32 35"><style>.bell{fill:#fff}.notification-circle{fill:transparent}</style><g id="_x36__6_"><path class="bell" d="M23.5 22v-8c0-5.5-4.4-10-9.8-10S3.9 8.5 3.9 14v8L0 30h8.9c.5 2.3 2.5 4 4.8 4s4.3-1.7 4.8-4h8.9l-3.9-8zm-9.8 10c-1.3 0-2.4-.8-2.7-2h5.5c-.4 1.2-1.5 2-2.8 2zM2.9 28l2.9-6v-8c0-4.4 3.5-8 7.8-8s7.8 3.6 7.8 8v8l2.9 6H2.9z"/><ellipse class="notification-circle" cx="27.5" cy="6" rx="4.2" ry="4.3"/></g></symbol></svg>